<svg version="1.1" id="Layer_1" xmlns="http://www.w3.org/2000/svg" xmlns:xlink="http://www.w3.org/1999/xlink" x="0px" y="0px"
	 width="100%" viewBox="0 0 1440 3200" enable-background="new 0 0 1440 3200" xml:space="preserve">
<path fill="#042F1F" opacity="1.000000" stroke="none" 
	d="
M1442.000000,1482.000000 
	C1442.000000,2055.239990 1442.000000,2628.479980 1442.000000,3201.859863 
	C962.171570,3201.859863 482.343079,3201.859863 2.000000,3201.859863 
	C2.000000,2526.614990 2.000000,1851.229980 2.670219,1174.571777 
	C7.436854,1176.045654 11.555221,1178.760742 15.626087,1181.545288 
	C42.472626,1199.908447 68.893906,1218.934326 96.267860,1236.473755 
	C122.518349,1253.293335 150.183838,1267.668701 178.730804,1280.437622 
	C206.957779,1293.063477 235.802643,1303.799194 265.356934,1312.708618 
	C290.844055,1320.392212 316.766876,1326.092896 343.005219,1330.782959 
	C373.214691,1336.182983 403.626343,1339.333984 434.150299,1341.414062 
	C454.069061,1342.771484 474.101929,1342.374023 494.074738,1343.034180 
	C546.131897,1344.754639 597.847595,1343.269653 648.749390,1330.268311 
	C676.617859,1323.150146 703.390869,1313.463745 728.449890,1299.464478 
	C763.924866,1279.645996 793.827148,1254.061279 811.870300,1216.504883 
	C823.438904,1192.425171 824.896118,1168.370239 814.887939,1143.293213 
	C805.207031,1119.036255 787.671204,1101.905762 766.976440,1087.387085 
	C745.540955,1072.348633 721.393372,1062.846191 696.727600,1054.852783 
	C666.624512,1045.097534 635.631042,1038.467651 604.310059,1034.601562 
	C568.982178,1030.240601 533.422607,1027.375977 497.881256,1025.223511 
	C454.685760,1022.607422 411.345306,1024.940918 368.089661,1021.474915 
	C333.824554,1018.729248 299.924744,1014.056458 266.459961,1006.741516 
	C235.650055,1000.006897 205.591614,990.477844 176.234390,978.641174 
	C142.831680,965.173401 111.195976,948.565369 81.271118,928.634583 
	C55.474945,911.453613 31.661022,891.798340 9.263494,870.388489 
	C7.267690,868.480652 4.440879,867.442200 2.000003,866.000000 
	C2.000000,578.188477 2.000000,290.377014 2.000000,2.000000 
	C144.051163,2.000000 286.103088,2.000000 429.533569,2.794907 
	C429.064117,38.288136 415.612610,67.753815 391.345734,92.552597 
	C374.000214,110.278290 353.758301,123.935959 332.538940,136.459625 
	C290.412018,161.322983 252.532440,191.013138 224.710495,232.111115 
	C204.947296,261.304901 193.070206,293.568451 188.962357,328.275085 
	C186.309189,350.691406 186.525360,373.458588 185.746689,396.078552 
	C185.518341,402.711945 185.710190,409.466187 186.693832,416.017273 
	C192.331757,453.566864 209.387344,486.131378 233.177292,514.905396 
	C251.837814,537.475342 274.228363,556.231750 300.827179,569.414856 
	C320.046539,578.940613 340.144745,585.987915 361.543518,587.263733 
	C403.270172,589.751465 444.735840,585.474304 485.776794,578.490662 
	C507.604187,574.776367 528.876709,567.847595 550.446411,562.560486 
	C573.683960,556.864624 595.680847,547.639404 617.585815,538.396912 
	C646.877747,526.037598 674.409973,510.160248 700.998718,492.775513 
	C742.871216,465.397644 780.500793,432.977814 814.360352,396.148285 
	C835.800232,372.827759 855.676453,348.218964 873.536194,322.103119 
	C891.712952,295.523804 908.297791,267.930725 922.526917,238.961807 
	C936.731079,210.043686 949.197815,180.423630 959.468994,149.897156 
	C969.109619,121.244843 977.010437,92.172325 982.319458,62.325535 
	C985.881653,42.299076 988.715698,22.272224 990.000000,2.000000 
	C1140.547607,2.000000 1291.095215,2.000000 1442.000000,2.000000 
	C1442.000000,207.384857 1442.000000,412.769897 1441.532959,619.770996 
	C1439.363525,620.357971 1437.577271,619.445007 1435.971436,618.282715 
	C1397.569824,590.488464 1356.479370,567.520691 1312.577881,549.626709 
	C1280.493530,536.549316 1247.485962,526.216614 1213.490479,519.739075 
	C1189.981934,515.259766 1166.145874,511.983978 1142.305176,509.878082 
	C1100.370117,506.173828 1058.497681,507.167358 1016.889893,514.819397 
	C982.128296,521.212341 949.220215,532.199463 919.766357,552.119934 
	C895.921204,568.247192 876.844360,588.811951 863.777405,614.649414 
	C855.307373,631.397583 850.255920,649.105713 846.917236,667.640442 
	C842.144714,694.134827 843.743652,720.093140 850.819397,745.683899 
	C854.791443,760.049133 860.095398,774.152405 866.000122,787.856262 
	C881.287842,823.336853 901.665466,855.390564 930.786316,881.447937 
	C961.645325,909.060486 997.801880,924.706482 1038.775757,927.757385 
	C1059.255005,929.282227 1080.060669,928.014526 1100.618042,926.573242 
	C1147.256104,923.303284 1193.030762,925.911255 1237.281372,942.565491 
	C1269.263916,954.602539 1295.568359,974.174011 1315.938354,1001.583313 
	C1333.684448,1025.462158 1345.008911,1052.206177 1350.369263,1081.434937 
	C1356.778931,1116.384399 1355.013184,1150.426392 1337.773804,1182.391846 
	C1325.147827,1205.803345 1306.361938,1222.664062 1280.040039,1227.679077 
	C1257.897949,1231.897949 1235.157959,1233.375000 1212.604004,1234.915649 
	C1193.013306,1236.253662 1173.273315,1235.374023 1153.675293,1236.645996 
	C1141.815430,1237.415649 1129.925537,1239.717163 1118.368652,1242.607666 
	C1106.365601,1245.609863 1097.009155,1253.319702 1094.594238,1265.761719 
	C1092.859863,1274.697998 1092.673462,1284.546875 1094.476929,1293.445190 
	C1100.287109,1322.110474 1112.079590,1348.357300 1129.468140,1372.049072 
	C1151.343262,1401.853271 1179.259277,1424.370239 1211.473755,1442.153809 
	C1247.187134,1461.869019 1285.536987,1473.229370 1325.512695,1479.721558 
	C1356.578491,1484.766846 1387.896973,1484.768799 1419.235840,1483.548584 
	C1426.832520,1483.252930 1434.412354,1482.527710 1442.000000,1482.000000 
M999.654541,1443.397949 
	C991.838074,1436.673340 983.980835,1429.995605 976.213562,1423.214722 
	C959.434448,1408.566528 943.068420,1393.516113 922.548401,1383.792480 
	C898.642822,1372.464844 869.437073,1376.749634 850.278198,1395.000977 
	C834.501648,1410.030151 824.744019,1428.910034 815.761292,1448.241211 
	C806.655762,1467.836426 797.859009,1487.579102 785.065796,1505.144287 
	C769.604553,1526.372803 749.911438,1540.573364 722.500183,1540.471313 
	C703.859253,1540.401855 685.223389,1539.325806 666.580994,1539.143433 
	C653.636230,1539.016846 640.534363,1538.500488 627.766296,1540.172119 
	C600.791443,1543.704224 583.586548,1561.847290 580.686401,1588.066284 
	C578.983215,1603.463989 580.908081,1619.300415 581.637756,1634.919189 
	C582.335999,1649.866577 583.834167,1664.777344 584.492310,1679.725708 
	C584.738892,1685.325684 584.347900,1691.175049 582.967773,1696.584106 
	C578.705505,1713.289062 570.433411,1728.060669 558.727478,1740.653076 
	C543.537842,1756.993042 527.809998,1772.831299 512.477661,1789.040649 
	C501.455872,1800.692749 491.602997,1813.137329 485.610596,1828.342529 
	C476.218689,1852.173218 485.149109,1883.663940 508.839020,1895.775391 
	C524.848816,1903.960327 542.162964,1906.817261 559.422607,1910.388550 
	C576.333069,1913.887817 593.322754,1917.330322 609.860168,1922.211914 
	C625.686951,1926.883667 639.138306,1936.004517 650.113403,1948.687988 
	C664.246460,1965.021484 669.863037,1984.563110 672.535034,2005.348389 
	C674.995972,2024.491333 676.648376,2043.781128 680.091797,2062.745850 
	C687.565430,2103.906250 709.622314,2135.487793 745.232544,2157.520020 
	C781.897400,2180.204834 822.738403,2188.389404 864.922119,2191.372314 
	C890.393738,2193.173584 915.499939,2189.135742 940.098450,2183.148682 
	C969.982544,2175.875244 997.724915,2163.120361 1023.884094,2146.892822 
	C1058.889526,2125.177979 1089.482910,2098.260498 1118.144165,2068.833008 
	C1144.425903,2041.848511 1169.071899,2013.524902 1191.511475,1983.302246 
	C1224.481445,1938.897339 1248.552979,1890.381958 1256.994751,1835.222290 
	C1259.553589,1818.503784 1260.978271,1801.378296 1260.587646,1784.493164 
	C1259.894043,1754.504639 1255.448486,1724.893799 1247.924561,1695.723022 
	C1239.697021,1663.824341 1230.068970,1632.514038 1215.213623,1602.975952 
	C1201.385498,1575.480469 1182.977417,1551.587769 1158.021118,1533.534668 
	C1141.921143,1521.888062 1124.951538,1511.251221 1107.555176,1501.639648 
	C1087.541626,1490.581909 1066.866699,1480.626221 1046.027832,1471.187744 
	C1029.863159,1463.866577 1014.340698,1455.818848 999.654541,1443.397949 
M1440.006714,2149.000000 
	C1440.006714,2133.403076 1440.006714,2117.806152 1440.006714,2101.625000 
	C1421.542847,2098.557861 1404.636597,2099.534668 1388.078369,2105.901367 
	C1364.316895,2115.038086 1346.220459,2131.268311 1331.031006,2151.176514 
	C1318.651001,2167.402344 1308.888672,2185.120850 1301.709106,2204.184570 
	C1291.224609,2232.023926 1283.060913,2260.481934 1284.113037,2290.594727 
	C1284.599121,2304.507568 1285.825562,2318.541504 1288.415283,2332.198242 
	C1292.088013,2351.566406 1298.574951,2370.098633 1311.543213,2385.615234 
	C1328.805908,2406.270508 1352.942871,2412.949951 1379.026367,2406.142822 
	C1398.681641,2401.013428 1415.461426,2390.461182 1431.641113,2378.486328 
	C1438.033691,2373.755371 1440.183838,2368.718018 1440.155762,2360.997070 
	C1439.901123,2290.998779 1440.006592,2220.999268 1440.006714,2149.000000 
M7.654119,1964.999878 
	C7.654119,2019.144531 7.654119,2073.289062 7.654119,2128.497070 
	C11.454819,2127.333740 13.802711,2127.043701 15.708158,2125.969238 
	C59.243217,2101.420166 93.182846,2067.261719 118.388321,2024.125244 
	C128.709717,2006.461304 135.655365,1987.529419 141.326935,1968.093262 
	C144.108780,1958.559937 146.397491,1948.648315 147.086075,1938.780640 
	C149.587753,1902.930908 146.521255,1867.687988 133.078598,1833.885498 
	C124.093735,1811.292236 109.903992,1792.780518 89.029884,1780.233521 
	C80.953415,1775.378906 71.429504,1772.933105 62.566425,1769.386230 
	C47.103390,1763.198242 31.081161,1765.916992 15.221927,1766.564941 
	C10.237198,1766.768677 7.322885,1769.648438 7.645760,1775.093384 
	C7.803226,1777.749023 7.655093,1780.422363 7.655043,1783.087769 
	C7.653916,1843.058472 7.654144,1903.029053 7.654119,1964.999878 
M1439.826904,39.015427 
	C1439.826904,29.778910 1439.826904,20.542391 1439.826904,10.826246 
	C1391.528076,10.826246 1344.320068,10.826246 1296.850952,10.826246 
	C1288.371826,26.662987 1281.680542,43.217121 1276.677612,60.509560 
	C1270.371582,82.306091 1265.533813,104.240562 1265.490723,127.151932 
	C1265.460449,143.233673 1266.749023,159.113007 1270.107788,174.754929 
	C1274.676514,196.030685 1281.079834,216.883698 1296.170044,233.244507 
	C1303.001587,240.651245 1311.521362,247.425919 1320.596191,251.648682 
	C1340.395996,260.861908 1360.648682,258.417084 1380.635620,250.360428 
	C1400.003784,242.553146 1416.720459,230.780548 1433.018799,218.045837 
	C1438.355713,213.875824 1439.974854,209.464813 1439.948730,202.984619 
	C1439.731079,148.994125 1439.826172,95.002365 1439.826904,39.015427 
M591.175110,754.285156 
	C589.837158,749.479004 588.694336,744.608093 587.126404,739.878174 
	C581.321838,722.367798 570.910278,709.062317 553.625244,701.155701 
	C530.049744,690.371582 506.398438,691.123596 482.887054,700.046936 
	C454.388428,710.862976 435.295441,732.068542 421.788971,758.718018 
	C414.387604,773.321655 409.344238,788.634155 408.295715,805.179077 
	C407.277161,821.250916 410.984833,836.448608 417.850037,850.535706 
	C426.364838,868.007629 440.965698,878.626099 460.469452,881.302856 
	C473.902832,883.146545 486.871307,880.535950 499.599182,875.873230 
	C523.781799,867.014282 544.788147,853.266846 562.357544,834.651062 
	C581.460449,814.410461 593.796265,791.053528 591.617554,762.044067 
	C591.467896,760.051392 591.431519,758.050110 591.175110,754.285156 
M681.746826,1382.020386 
	C672.128113,1383.629517 664.515198,1388.620605 658.130493,1395.816162 
	C639.768127,1416.510864 637.437683,1450.742676 654.175720,1474.680908 
	C662.500793,1486.587158 673.779053,1494.683350 689.416992,1493.616943 
	C704.919861,1492.559814 715.226379,1483.255371 722.373962,1470.658691 
	C733.422913,1451.186523 734.277466,1430.321045 725.214905,1410.142822 
	C717.424255,1392.796753 704.454529,1380.864990 681.746826,1382.020386 
z"/>
<path fill="#A9EFC6" opacity="1.000000" stroke="none" 
	d="
M1442.000000,1481.062744 
	C1434.412354,1482.527710 1426.832520,1483.252930 1419.235840,1483.548584 
	C1387.896973,1484.768799 1356.578491,1484.766846 1325.512695,1479.721558 
	C1285.536987,1473.229370 1247.187134,1461.869019 1211.473755,1442.153809 
	C1179.259277,1424.370239 1151.343262,1401.853271 1129.468140,1372.049072 
	C1112.079590,1348.357300 1100.287109,1322.110474 1094.476929,1293.445190 
	C1092.673462,1284.546875 1092.859863,1274.697998 1094.594238,1265.761719 
	C1097.009155,1253.319702 1106.365601,1245.609863 1118.368652,1242.607666 
	C1129.925537,1239.717163 1141.815430,1237.415649 1153.675293,1236.645996 
	C1173.273315,1235.374023 1193.013306,1236.253662 1212.604004,1234.915649 
	C1235.157959,1233.375000 1257.897949,1231.897949 1280.040039,1227.679077 
	C1306.361938,1222.664062 1325.147827,1205.803345 1337.773804,1182.391846 
	C1355.013184,1150.426392 1356.778931,1116.384399 1350.369263,1081.434937 
	C1345.008911,1052.206177 1333.684448,1025.462158 1315.938354,1001.583313 
	C1295.568359,974.174011 1269.263916,954.602539 1237.281372,942.565491 
	C1193.030762,925.911255 1147.256104,923.303284 1100.618042,926.573242 
	C1080.060669,928.014526 1059.255005,929.282227 1038.775757,927.757385 
	C997.801880,924.706482 961.645325,909.060486 930.786316,881.447937 
	C901.665466,855.390564 881.287842,823.336853 866.000122,787.856262 
	C860.095398,774.152405 854.791443,760.049133 850.819397,745.683899 
	C843.743652,720.093140 842.144714,694.134827 846.917236,667.640442 
	C850.255920,649.105713 855.307373,631.397583 863.777405,614.649414 
	C876.844360,588.811951 895.921204,568.247192 919.766357,552.119934 
	C949.220215,532.199463 982.128296,521.212341 1016.889893,514.819397 
	C1058.497681,507.167358 1100.370117,506.173828 1142.305176,509.878082 
	C1166.145874,511.983978 1189.981934,515.259766 1213.490479,519.739075 
	C1247.485962,526.216614 1280.493530,536.549316 1312.577881,549.626709 
	C1356.479370,567.520691 1397.569824,590.488464 1435.971436,618.282715 
	C1437.577271,619.445007 1439.363525,620.357971 1441.532959,620.693542 
	C1442.000000,906.708435 1442.000000,1193.416870 1442.000000,1481.062744 
M1037.153076,603.795715 
	C1027.417603,599.595215 1017.993408,594.285461 1007.876038,591.445129 
	C991.215759,586.768127 975.831360,589.768860 962.593933,602.217224 
	C948.335938,615.625244 947.561584,632.176270 951.147217,649.312500 
	C954.358826,664.661316 961.072205,678.947083 969.809875,692.007751 
	C982.783752,711.400696 990.624329,732.742554 995.752563,755.327820 
	C1000.531555,776.375366 1004.746582,797.576294 1012.970337,817.712830 
	C1023.721863,844.038757 1047.912354,861.420166 1076.866089,859.544006 
	C1091.619995,858.588013 1104.410034,852.463196 1115.531738,842.838318 
	C1132.503418,828.150452 1143.142456,808.900879 1153.617920,789.570923 
	C1162.965210,772.322815 1172.007690,754.958618 1183.880737,739.164551 
	C1191.254639,729.355469 1197.250366,718.600769 1200.678101,706.500183 
	C1205.320801,690.110413 1201.132080,674.701904 1187.760986,664.533203 
	C1183.329834,661.163269 1178.100586,658.682617 1172.953979,656.443787 
	C1157.791382,649.847839 1141.509155,647.877869 1125.302490,646.271912 
	C1106.332886,644.392212 1088.953857,638.693970 1073.221191,627.909180 
	C1061.691162,620.005249 1050.073730,612.228699 1037.153076,603.795715 
z"/>
<path fill="#A9EFC6" opacity="1.000000" stroke="none" 
	d="
M989.062683,2.000000 
	C988.715698,22.272224 985.881653,42.299076 982.319458,62.325535 
	C977.010437,92.172325 969.109619,121.244843 959.468994,149.897156 
	C949.197815,180.423630 936.731079,210.043686 922.526917,238.961807 
	C908.297791,267.930725 891.712952,295.523804 873.536194,322.103119 
	C855.676453,348.218964 835.800232,372.827759 814.360352,396.148285 
	C780.500793,432.977814 742.871216,465.397644 700.998718,492.775513 
	C674.409973,510.160248 646.877747,526.037598 617.585815,538.396912 
	C595.680847,547.639404 573.683960,556.864624 550.446411,562.560486 
	C528.876709,567.847595 507.604187,574.776367 485.776794,578.490662 
	C444.735840,585.474304 403.270172,589.751465 361.543518,587.263733 
	C340.144745,585.987915 320.046539,578.940613 300.827179,569.414856 
	C274.228363,556.231750 251.837814,537.475342 233.177292,514.905396 
	C209.387344,486.131378 192.331757,453.566864 186.693832,416.017273 
	C185.710190,409.466187 185.518341,402.711945 185.746689,396.078552 
	C186.525360,373.458588 186.309189,350.691406 188.962357,328.275085 
	C193.070206,293.568451 204.947296,261.304901 224.710495,232.111115 
	C252.532440,191.013138 290.412018,161.322983 332.538940,136.459625 
	C353.758301,123.935959 374.000214,110.278290 391.345734,92.552597 
	C415.612610,67.753815 429.064117,38.288136 430.456055,2.794907 
	C616.041809,2.000000 802.083557,2.000000 989.062683,2.000000 
M415.360474,410.664459 
	C421.576324,410.705658 427.912201,413.554504 435.700745,410.307037 
	C440.392029,409.850555 445.083282,409.394073 451.282715,409.457977 
	C463.086517,406.186432 475.220673,403.787689 486.628235,399.469452 
	C513.966003,389.120880 539.094788,374.542206 562.735046,357.345551 
	C602.637756,328.319244 636.611389,293.706665 662.559814,251.559937 
	C678.219055,226.125458 687.661682,198.669327 685.665771,168.492188 
	C684.841431,156.028412 682.121887,143.504822 678.738953,131.436005 
	C672.674438,109.800400 661.335693,91.113785 642.484985,78.173820 
	C629.490967,69.254143 614.806763,65.585678 598.958923,68.594254 
	C577.867432,72.598320 560.338684,83.359840 544.072815,96.930092 
	C520.845459,116.308258 505.361481,141.270645 491.457520,167.524078 
	C481.453461,186.413757 469.163879,203.707642 453.340485,218.156662 
	C431.035919,238.523788 408.189545,258.298248 385.922424,278.705353 
	C371.843750,291.607971 359.761871,306.113708 354.561554,325.142639 
	C350.267578,340.855042 348.918457,356.665741 355.255493,372.054657 
	C363.889954,393.022583 380.260590,404.618103 403.781067,409.539734 
	C407.205688,409.626404 410.630341,409.713043 415.360474,410.664459 
z"/>
<path fill="#A8EEC5" opacity="1.000000" stroke="none" 
	d="
M2.000003,866.937317 
	C4.440879,867.442200 7.267690,868.480652 9.263494,870.388489 
	C31.661022,891.798340 55.474945,911.453613 81.271118,928.634583 
	C111.195976,948.565369 142.831680,965.173401 176.234390,978.641174 
	C205.591614,990.477844 235.650055,1000.006897 266.459961,1006.741516 
	C299.924744,1014.056458 333.824554,1018.729248 368.089661,1021.474915 
	C411.345306,1024.940918 454.685760,1022.607422 497.881256,1025.223511 
	C533.422607,1027.375977 568.982178,1030.240601 604.310059,1034.601562 
	C635.631042,1038.467651 666.624512,1045.097534 696.727600,1054.852783 
	C721.393372,1062.846191 745.540955,1072.348633 766.976440,1087.387085 
	C787.671204,1101.905762 805.207031,1119.036255 814.887939,1143.293213 
	C824.896118,1168.370239 823.438904,1192.425171 811.870300,1216.504883 
	C793.827148,1254.061279 763.924866,1279.645996 728.449890,1299.464478 
	C703.390869,1313.463745 676.617859,1323.150146 648.749390,1330.268311 
	C597.847595,1343.269653 546.131897,1344.754639 494.074738,1343.034180 
	C474.101929,1342.374023 454.069061,1342.771484 434.150299,1341.414062 
	C403.626343,1339.333984 373.214691,1336.182983 343.005219,1330.782959 
	C316.766876,1326.092896 290.844055,1320.392212 265.356934,1312.708618 
	C235.802643,1303.799194 206.957779,1293.063477 178.730804,1280.437622 
	C150.183838,1267.668701 122.518349,1253.293335 96.267860,1236.473755 
	C68.893906,1218.934326 42.472626,1199.908447 15.626087,1181.545288 
	C11.555221,1178.760742 7.436854,1176.045654 2.670219,1173.649292 
	C2.000000,1071.958252 2.000000,969.916443 2.000003,866.937317 
M534.454529,1222.645874 
	C537.711304,1216.462769 537.372925,1210.428101 533.335266,1204.779297 
	C530.065674,1200.204956 526.757263,1195.611450 523.010803,1191.434570 
	C515.306274,1182.844849 514.246765,1179.725098 519.765442,1170.293701 
	C522.868530,1164.990601 527.400879,1160.367920 531.898376,1156.077026 
	C537.170349,1151.046997 543.690063,1147.256104 548.624756,1141.956055 
	C557.944946,1131.945679 554.072083,1121.318726 540.608032,1118.661255 
	C538.339905,1118.213623 535.965820,1118.206665 533.638245,1118.174438 
	C526.639832,1118.077759 519.636902,1117.910889 512.641724,1118.057495 
	C495.194824,1118.423218 481.664307,1112.050903 473.078003,1096.224365 
	C468.962921,1088.639404 464.568481,1081.144409 459.611359,1074.093018 
	C452.706299,1064.270752 443.436951,1058.787231 430.761505,1059.562866 
	C422.822876,1060.048462 415.925873,1062.791260 409.144135,1066.433594 
	C394.223602,1074.447144 382.214478,1086.009644 371.194183,1098.521362 
	C358.430939,1113.012085 346.274414,1128.084961 340.624481,1147.089722 
	C335.343719,1164.852783 337.650146,1183.604248 353.423309,1193.317261 
	C356.512177,1195.219360 359.333923,1197.673950 361.936646,1200.223145 
	C367.910950,1206.074585 368.540009,1209.447266 365.029083,1217.161865 
	C363.677368,1220.132202 361.707977,1222.839966 359.872223,1225.567871 
	C354.873352,1232.995605 349.053619,1239.984131 344.949402,1247.870117 
	C340.487518,1256.443481 340.440033,1265.794922 345.215332,1274.669800 
	C355.178833,1293.187012 372.587769,1301.233154 391.741882,1303.112061 
	C424.585144,1306.333740 454.110229,1295.705078 480.057617,1275.465576 
	C491.082184,1266.866089 501.812073,1257.883911 512.562927,1248.939941 
	C521.041565,1241.886353 528.907593,1234.254272 534.454529,1222.645874 
z"/>
<path fill="#A9EFC6" opacity="1.000000" stroke="none" 
	d="
M1000.239563,1443.809814 
	C1014.340698,1455.818848 1029.863159,1463.866577 1046.027832,1471.187744 
	C1066.866699,1480.626221 1087.541626,1490.581909 1107.555176,1501.639648 
	C1124.951538,1511.251221 1141.921143,1521.888062 1158.021118,1533.534668 
	C1182.977417,1551.587769 1201.385498,1575.480469 1215.213623,1602.975952 
	C1230.068970,1632.514038 1239.697021,1663.824341 1247.924561,1695.723022 
	C1255.448486,1724.893799 1259.894043,1754.504639 1260.587646,1784.493164 
	C1260.978271,1801.378296 1259.553589,1818.503784 1256.994751,1835.222290 
	C1248.552979,1890.381958 1224.481445,1938.897339 1191.511475,1983.302246 
	C1169.071899,2013.524902 1144.425903,2041.848511 1118.144165,2068.833008 
	C1089.482910,2098.260498 1058.889526,2125.177979 1023.884094,2146.892822 
	C997.724915,2163.120361 969.982544,2175.875244 940.098450,2183.148682 
	C915.499939,2189.135742 890.393738,2193.173584 864.922119,2191.372314 
	C822.738403,2188.389404 781.897400,2180.204834 745.232544,2157.520020 
	C709.622314,2135.487793 687.565430,2103.906250 680.091797,2062.745850 
	C676.648376,2043.781128 674.995972,2024.491333 672.535034,2005.348389 
	C669.863037,1984.563110 664.246460,1965.021484 650.113403,1948.687988 
	C639.138306,1936.004517 625.686951,1926.883667 609.860168,1922.211914 
	C593.322754,1917.330322 576.333069,1913.887817 559.422607,1910.388550 
	C542.162964,1906.817261 524.848816,1903.960327 508.839020,1895.775391 
	C485.149109,1883.663940 476.218689,1852.173218 485.610596,1828.342529 
	C491.602997,1813.137329 501.455872,1800.692749 512.477661,1789.040649 
	C527.809998,1772.831299 543.537842,1756.993042 558.727478,1740.653076 
	C570.433411,1728.060669 578.705505,1713.289062 582.967773,1696.584106 
	C584.347900,1691.175049 584.738892,1685.325684 584.492310,1679.725708 
	C583.834167,1664.777344 582.335999,1649.866577 581.637756,1634.919189 
	C580.908081,1619.300415 578.983215,1603.463989 580.686401,1588.066284 
	C583.586548,1561.847290 600.791443,1543.704224 627.766296,1540.172119 
	C640.534363,1538.500488 653.636230,1539.016846 666.580994,1539.143433 
	C685.223389,1539.325806 703.859253,1540.401855 722.500183,1540.471313 
	C749.911438,1540.573364 769.604553,1526.372803 785.065796,1505.144287 
	C797.859009,1487.579102 806.655762,1467.836426 815.761292,1448.241211 
	C824.744019,1428.910034 834.501648,1410.030151 850.278198,1395.000977 
	C869.437073,1376.749634 898.642822,1372.464844 922.548401,1383.792480 
	C943.068420,1393.516113 959.434448,1408.566528 976.213562,1423.214722 
	C983.980835,1429.995605 991.838074,1436.673340 1000.239563,1443.809814 
M778.076355,1741.911987 
	C778.286865,1754.556519 778.497437,1767.200928 778.287292,1781.426514 
	C779.606201,1788.956421 780.346985,1796.643433 782.343079,1803.989380 
	C791.601074,1838.060547 806.965027,1869.130371 829.537964,1896.396851 
	C843.810242,1913.636841 859.882507,1928.876465 879.053894,1940.831421 
	C891.899231,1948.841431 905.758850,1954.123413 919.989868,1958.660400 
	C944.293640,1966.408325 968.910889,1967.982178 993.555237,1960.549438 
	C1012.019348,1954.980591 1026.312622,1943.341675 1037.849976,1928.102783 
	C1058.390381,1900.972534 1063.781738,1868.969604 1067.142212,1836.396240 
	C1069.386719,1814.640869 1065.925049,1793.122681 1062.557007,1771.778198 
	C1058.395630,1745.406006 1050.245361,1720.136230 1037.451782,1696.545654 
	C1025.547729,1674.595459 1009.919983,1655.900757 989.276245,1641.564087 
	C974.438477,1631.259521 958.415894,1623.137451 941.194702,1618.083008 
	C923.315430,1612.835693 905.067505,1610.394043 886.086792,1613.130615 
	C864.589783,1616.230225 846.023560,1624.924927 829.967224,1638.906128 
	C806.008972,1659.767822 790.732117,1686.307861 782.245850,1716.713501 
	C780.137573,1724.267334 779.785583,1732.311279 778.076355,1741.911987 
z"/>
<path fill="#A8EEC5" opacity="1.000000" stroke="none" 
	d="
M1440.006714,2150.000000 
	C1440.006592,2220.999268 1439.901123,2290.998779 1440.155762,2360.997070 
	C1440.183838,2368.718018 1438.033691,2373.755371 1431.641113,2378.486328 
	C1415.461426,2390.461182 1398.681641,2401.013428 1379.026367,2406.142822 
	C1352.942871,2412.949951 1328.805908,2406.270508 1311.543213,2385.615234 
	C1298.574951,2370.098633 1292.088013,2351.566406 1288.415283,2332.198242 
	C1285.825562,2318.541504 1284.599121,2304.507568 1284.113037,2290.594727 
	C1283.060913,2260.481934 1291.224609,2232.023926 1301.709106,2204.184570 
	C1308.888672,2185.120850 1318.651001,2167.402344 1331.031006,2151.176514 
	C1346.220459,2131.268311 1364.316895,2115.038086 1388.078369,2105.901367 
	C1404.636597,2099.534668 1421.542847,2098.557861 1440.006714,2101.625000 
	C1440.006714,2117.806152 1440.006714,2133.403076 1440.006714,2150.000000 
z"/>
<path fill="#A8EEC5" opacity="1.000000" stroke="none" 
	d="
M7.654118,1963.999756 
	C7.654144,1903.029053 7.653916,1843.058472 7.655043,1783.087769 
	C7.655093,1780.422363 7.803226,1777.749023 7.645760,1775.093384 
	C7.322885,1769.648438 10.237198,1766.768677 15.221927,1766.564941 
	C31.081161,1765.916992 47.103390,1763.198242 62.566425,1769.386230 
	C71.429504,1772.933105 80.953415,1775.378906 89.029884,1780.233521 
	C109.903992,1792.780518 124.093735,1811.292236 133.078598,1833.885498 
	C146.521255,1867.687988 149.587753,1902.930908 147.086075,1938.780640 
	C146.397491,1948.648315 144.108780,1958.559937 141.326935,1968.093262 
	C135.655365,1987.529419 128.709717,2006.461304 118.388321,2024.125244 
	C93.182846,2067.261719 59.243217,2101.420166 15.708158,2125.969238 
	C13.802711,2127.043701 11.454819,2127.333740 7.654119,2128.497070 
	C7.654119,2073.289062 7.654119,2019.144531 7.654118,1963.999756 
z"/>
<path fill="#A8EEC5" opacity="1.000000" stroke="none" 
	d="
M1439.826904,40.013206 
	C1439.826172,95.002365 1439.731079,148.994125 1439.948730,202.984619 
	C1439.974854,209.464813 1438.355713,213.875824 1433.018799,218.045837 
	C1416.720459,230.780548 1400.003784,242.553146 1380.635620,250.360428 
	C1360.648682,258.417084 1340.395996,260.861908 1320.596191,251.648682 
	C1311.521362,247.425919 1303.001587,240.651245 1296.170044,233.244507 
	C1281.079834,216.883698 1274.676514,196.030685 1270.107788,174.754929 
	C1266.749023,159.113007 1265.460449,143.233673 1265.490723,127.151932 
	C1265.533813,104.240562 1270.371582,82.306091 1276.677612,60.509560 
	C1281.680542,43.217121 1288.371826,26.662987 1296.850952,10.826246 
	C1344.320068,10.826246 1391.528076,10.826246 1439.826904,10.826246 
	C1439.826904,20.542391 1439.826904,29.778910 1439.826904,40.013206 
z"/>
<path fill="#A7EDC4" opacity="1.000000" stroke="none" 
	d="
M591.258789,755.169006 
	C591.431519,758.050110 591.467896,760.051392 591.617554,762.044067 
	C593.796265,791.053528 581.460449,814.410461 562.357544,834.651062 
	C544.788147,853.266846 523.781799,867.014282 499.599182,875.873230 
	C486.871307,880.535950 473.902832,883.146545 460.469452,881.302856 
	C440.965698,878.626099 426.364838,868.007629 417.850037,850.535706 
	C410.984833,836.448608 407.277161,821.250916 408.295715,805.179077 
	C409.344238,788.634155 414.387604,773.321655 421.788971,758.718018 
	C435.295441,732.068542 454.388428,710.862976 482.887054,700.046936 
	C506.398438,691.123596 530.049744,690.371582 553.625244,701.155701 
	C570.910278,709.062317 581.321838,722.367798 587.126404,739.878174 
	C588.694336,744.608093 589.837158,749.479004 591.258789,755.169006 
z"/>
<path fill="#A6EBC2" opacity="1.000000" stroke="none" 
	d="
M682.614929,1381.963379 
	C704.454529,1380.864990 717.424255,1392.796753 725.214905,1410.142822 
	C734.277466,1430.321045 733.422913,1451.186523 722.373962,1470.658691 
	C715.226379,1483.255371 704.919861,1492.559814 689.416992,1493.616943 
	C673.779053,1494.683350 662.500793,1486.587158 654.175720,1474.680908 
	C637.437683,1450.742676 639.768127,1416.510864 658.130493,1395.816162 
	C664.515198,1388.620605 672.128113,1383.629517 682.614929,1381.963379 
z"/>
<path fill="#063121" opacity="1.000000" stroke="none" 
	d="
M1037.824219,604.095581 
	C1050.073730,612.228699 1061.691162,620.005249 1073.221191,627.909180 
	C1088.953857,638.693970 1106.332886,644.392212 1125.302490,646.271912 
	C1141.509155,647.877869 1157.791382,649.847839 1172.953979,656.443787 
	C1178.100586,658.682617 1183.329834,661.163269 1187.760986,664.533203 
	C1201.132080,674.701904 1205.320801,690.110413 1200.678101,706.500183 
	C1197.250366,718.600769 1191.254639,729.355469 1183.880737,739.164551 
	C1172.007690,754.958618 1162.965210,772.322815 1153.617920,789.570923 
	C1143.142456,808.900879 1132.503418,828.150452 1115.531738,842.838318 
	C1104.410034,852.463196 1091.619995,858.588013 1076.866089,859.544006 
	C1047.912354,861.420166 1023.721863,844.038757 1012.970337,817.712830 
	C1004.746582,797.576294 1000.531555,776.375366 995.752563,755.327820 
	C990.624329,732.742554 982.783752,711.400696 969.809875,692.007751 
	C961.072205,678.947083 954.358826,664.661316 951.147217,649.312500 
	C947.561584,632.176270 948.335938,615.625244 962.593933,602.217224 
	C975.831360,589.768860 991.215759,586.768127 1007.876038,591.445129 
	C1017.993408,594.285461 1027.417603,599.595215 1037.824219,604.095581 
z"/>
<path fill="#053020" opacity="1.000000" stroke="none" 
	d="
M402.230103,408.801697 
	C380.260590,404.618103 363.889954,393.022583 355.255493,372.054657 
	C348.918457,356.665741 350.267578,340.855042 354.561554,325.142639 
	C359.761871,306.113708 371.843750,291.607971 385.922424,278.705353 
	C408.189545,258.298248 431.035919,238.523788 453.340485,218.156662 
	C469.163879,203.707642 481.453461,186.413757 491.457520,167.524078 
	C505.361481,141.270645 520.845459,116.308258 544.072815,96.930092 
	C560.338684,83.359840 577.867432,72.598320 598.958923,68.594254 
	C614.806763,65.585678 629.490967,69.254143 642.484985,78.173820 
	C661.335693,91.113785 672.674438,109.800400 678.738953,131.436005 
	C682.121887,143.504822 684.841431,156.028412 685.665771,168.492188 
	C687.661682,198.669327 678.219055,226.125458 662.559814,251.559937 
	C636.611389,293.706665 602.637756,328.319244 562.735046,357.345551 
	C539.094788,374.542206 513.966003,389.120880 486.628235,399.469452 
	C475.220673,403.787689 463.086517,406.186432 450.086731,408.621826 
	C447.436646,407.166779 445.989075,406.029175 444.527435,406.010834 
	C432.387512,405.858337 420.242279,405.783020 408.105896,406.034180 
	C406.129059,406.075104 404.187805,407.835846 402.230103,408.801697 
z"/>
<path fill="#000601" opacity="1.000000" stroke="none" 
	d="
M403.005585,409.170715 
	C404.187805,407.835846 406.129059,406.075104 408.105896,406.034180 
	C420.242279,405.783020 432.387512,405.858337 444.527435,406.010834 
	C445.989075,406.029175 447.436646,407.166779 449.332642,408.361633 
	C445.083282,409.394073 440.392029,409.850555 434.212189,409.594177 
	C426.425140,407.650452 420.132812,406.545319 414.054962,409.799713 
	C410.630341,409.713043 407.205688,409.626404 403.005585,409.170715 
z"/>
<path fill="#053020" opacity="1.000000" stroke="none" 
	d="
M414.707703,410.232086 
	C420.132812,406.545319 426.425140,407.650452 433.346191,409.375244 
	C427.912201,413.554504 421.576324,410.705658 414.707703,410.232086 
z"/>
<path fill="#073222" opacity="1.000000" stroke="none" 
	d="
M534.037842,1223.319702 
	C528.907593,1234.254272 521.041565,1241.886353 512.562927,1248.939941 
	C501.812073,1257.883911 491.082184,1266.866089 480.057617,1275.465576 
	C454.110229,1295.705078 424.585144,1306.333740 391.741882,1303.112061 
	C372.587769,1301.233154 355.178833,1293.187012 345.215332,1274.669800 
	C340.440033,1265.794922 340.487518,1256.443481 344.949402,1247.870117 
	C349.053619,1239.984131 354.873352,1232.995605 359.872223,1225.567871 
	C361.707977,1222.839966 363.677368,1220.132202 365.029083,1217.161865 
	C368.540009,1209.447266 367.910950,1206.074585 361.936646,1200.223145 
	C359.333923,1197.673950 356.512177,1195.219360 353.423309,1193.317261 
	C337.650146,1183.604248 335.343719,1164.852783 340.624481,1147.089722 
	C346.274414,1128.084961 358.430939,1113.012085 371.194183,1098.521362 
	C382.214478,1086.009644 394.223602,1074.447144 409.144135,1066.433594 
	C415.925873,1062.791260 422.822876,1060.048462 430.761505,1059.562866 
	C443.436951,1058.787231 452.706299,1064.270752 459.611359,1074.093018 
	C464.568481,1081.144409 468.962921,1088.639404 473.078003,1096.224365 
	C481.664307,1112.050903 495.194824,1118.423218 512.641724,1118.057495 
	C519.636902,1117.910889 526.639832,1118.077759 533.638245,1118.174438 
	C535.965820,1118.206665 538.339905,1118.213623 540.608032,1118.661255 
	C554.072083,1121.318726 557.944946,1131.945679 548.624756,1141.956055 
	C543.690063,1147.256104 537.170349,1151.046997 531.898376,1156.077026 
	C527.400879,1160.367920 522.868530,1164.990601 519.765442,1170.293701 
	C514.246765,1179.725098 515.306274,1182.844849 523.010803,1191.434570 
	C526.757263,1195.611450 530.065674,1200.204956 533.335266,1204.779297 
	C537.372925,1210.428101 537.711304,1216.462769 534.037842,1223.319702 
z"/>
<path fill="#053020" opacity="1.000000" stroke="none" 
	d="
M778.626221,1740.130005 
	C779.785583,1732.311279 780.137573,1724.267334 782.245850,1716.713501 
	C790.732117,1686.307861 806.008972,1659.767822 829.967224,1638.906128 
	C846.023560,1624.924927 864.589783,1616.230225 886.086792,1613.130615 
	C905.067505,1610.394043 923.315430,1612.835693 941.194702,1618.083008 
	C958.415894,1623.137451 974.438477,1631.259521 989.276245,1641.564087 
	C1009.919983,1655.900757 1025.547729,1674.595459 1037.451782,1696.545654 
	C1050.245361,1720.136230 1058.395630,1745.406006 1062.557007,1771.778198 
	C1065.925049,1793.122681 1069.386719,1814.640869 1067.142212,1836.396240 
	C1063.781738,1868.969604 1058.390381,1900.972534 1037.849976,1928.102783 
	C1026.312622,1943.341675 1012.019348,1954.980591 993.555237,1960.549438 
	C968.910889,1967.982178 944.293640,1966.408325 919.989868,1958.660400 
	C905.758850,1954.123413 891.899231,1948.841431 879.053894,1940.831421 
	C859.882507,1928.876465 843.810242,1913.636841 829.537964,1896.396851 
	C806.965027,1869.130371 791.601074,1838.060547 782.343079,1803.989380 
	C780.346985,1796.643433 779.606201,1788.956421 779.103516,1780.213623 
	C780.490295,1778.207886 781.544006,1777.423828 781.558350,1776.621094 
	C781.748230,1766.010132 781.926208,1755.394165 781.726013,1744.786621 
	C781.696350,1743.215454 779.708252,1741.681274 778.626221,1740.130005 
z"/>
<path fill="#000B06" opacity="1.000000" stroke="none" 
	d="
M778.351318,1741.020996 
	C779.708252,1741.681274 781.696350,1743.215454 781.726013,1744.786621 
	C781.926208,1755.394165 781.748230,1766.010132 781.558350,1776.621094 
	C781.544006,1777.423828 780.490295,1778.207886 779.313843,1779.423096 
	C778.497437,1767.200928 778.286865,1754.556519 778.351318,1741.020996 
z"/>
</svg>